<svg id="Livello_1" data-name="Livello 1" xmlns="http://www.w3.org/2000/svg" xmlns:xlink="http://www.w3.org/1999/xlink" viewBox="0 0 906.57 481.37"><defs><style>.cls-1,.cls-2,.cls-5,.cls-6{fill:none;}.cls-2{stroke:#1d1d1b;}.cls-3{fill:#1d1d1b;}.cls-4{clip-path:url(#clip-path);}.cls-5{stroke:#fff;stroke-width:1.25px;}.cls-5,.cls-6{stroke-miterlimit:10;}.cls-6{stroke:#000;stroke-width:0.25px;}</style><clipPath id="clip-path" transform="translate(222.22 198.6)"><rect class="cls-1" x="-222.22" y="-198.6" width="906.57" height="481.37"/></clipPath></defs><title>logo</title><path class="cls-2" d="M199.88,179.57" transform="translate(222.22 198.6)"/><path class="cls-3" d="M44,60.81c-2.64,0-3.89-1.59-3.89-4V38.39H31.29V36h7c1.39,0,1.92-.53,1.92-1.93V27.3h2.64V36H54.62v2.35H42.81V58.45H54.62v2.36Z" transform="translate(222.22 198.6)"/><path class="cls-3" d="M62,58.45h7.78V38.39H62V36H72.52V41.7h.19c1-3,3.17-5.66,8.07-5.66h4.27v2.68H80c-4.46,0-7.44,2.88-7.44,7.35V58.45H82.6v2.36H62Z" transform="translate(222.22 198.6)"/><path class="cls-3" d="M110.06,60.81c-2.21,0-3.07-1.21-3.22-3v-.86h-.24c-1.1,2.59-3.5,4.46-7.77,4.46-5.19,0-8.36-2.69-8.36-7.25,0-4.37,2.79-7.1,10.18-7.1h6V44c0-4.12-2.4-6.19-6.43-6.19-3.41,0-5.76,1.39-7.11,4.08l-1.87-1.34c1.3-2.83,4.32-5.09,9.12-5.09,5.57,0,9,3.07,9,8.26V58.4h3.7v2.41Zm-3.36-7.16V49.09h-6c-5.14,0-7.3,1.68-7.3,4.37v1.25c0,2.83,2.36,4.37,5.91,4.37C103.43,59.08,106.7,57,106.7,53.65Z" transform="translate(222.22 198.6)"/><path class="cls-3" d="M120.38,48.42c0-8.16,4-13,10.8-13,4.61,0,7.58,2.3,8.83,5.57l-2.21,1.1c-1-2.73-3.31-4.27-6.62-4.27-5,0-7.88,3.55-7.88,8.83v3.46c0,5.28,2.84,8.83,7.93,8.83a7.38,7.38,0,0,0,7.15-4.56l2,1.3c-1.39,3.21-4.41,5.66-9.16,5.66C124.36,61.38,120.38,56.53,120.38,48.42Z" transform="translate(222.22 198.6)"/><path class="cls-3" d="M149.94,58.45h9.32V38.39h-9.32V36H162V58.45h8.69v2.36H149.94Zm8.26-31v-.62c0-1.11.67-1.92,2.4-1.92s2.4.81,2.4,1.92v.62c0,1.1-.67,1.92-2.4,1.92S158.2,28.59,158.2,27.49Z" transform="translate(222.22 198.6)"/><path class="cls-3" d="M178.7,60.81V36h2.73v3.84h.19c1-2.31,3.08-4.42,7.25-4.42,5.33,0,8.5,3.36,8.5,9.36v16h-2.74V45.3c0-5.09-2.3-7.39-6.48-7.39-3.41,0-6.72,1.73-6.72,5.47V60.81Z" transform="translate(222.22 198.6)"/><path class="cls-3" d="M216.76,71c-7.68,0-10.85-2.3-10.85-6.19,0-2.78,1.63-4.37,4.37-5.19v-.38a3.34,3.34,0,0,1-2.35-3.36c0-2.4,1.92-3.65,4.32-4.27V51.4a7.69,7.69,0,0,1-4.66-7.49c0-5,3.55-8.45,9.07-8.45a10,10,0,0,1,5.09,1.25v-1c0-1.54.67-2.55,2.35-2.55H229v2.41h-5.66v2.25a8,8,0,0,1,2.49,6.1c0,5-3.64,8.4-9.12,8.4a11.06,11.06,0,0,1-2.49-.24c-2,.48-3.84,1.49-3.84,3.21,0,1.44,1.29,2.16,4,2.16h5.9c6,0,8.6,2.45,8.6,6.29C228.86,68.68,224.63,71,216.76,71Zm3.5-11h-8.11c-2.21.72-3.55,2.06-3.55,4.27,0,2.59,2.16,4.51,6.48,4.51h3.22c4.89,0,8-1.63,8-4.94C226.26,61.48,224.73,60,220.26,60Zm2.64-15.31V43.09c0-3.21-2.11-5.47-6.24-5.47s-6.19,2.26-6.19,5.47v1.59c0,3.16,2.16,5.47,6.19,5.47S222.9,47.84,222.9,44.68Z" transform="translate(222.22 198.6)"/><path class="cls-3" d="M233.94,68.39v-2.5h23v2.5Z" transform="translate(222.22 198.6)"/><path class="cls-3" d="M280.79,56.87h-.14A8.17,8.17,0,0,1,273,61.38c-6.15,0-9.84-4.66-9.84-13s3.69-13,9.84-13A8.17,8.17,0,0,1,280.65,40h.14V25.28h2.74V60.81h-2.74Zm0-3.55v-9.8c0-3.5-3.21-5.61-6.91-5.61-5,0-7.83,3.41-7.83,8.78v3.46c0,5.37,2.84,8.78,7.83,8.78C277.58,58.93,280.79,56.82,280.79,53.32Z" transform="translate(222.22 198.6)"/><path class="cls-3" d="M293.94,58.45h9.32V38.39h-9.32V36H306V58.45h8.69v2.36H293.94Zm8.26-31v-.62c0-1.11.67-1.92,2.4-1.92s2.4.81,2.4,1.92v.62c0,1.1-.67,1.92-2.4,1.92S302.2,28.59,302.2,27.49Z" transform="translate(222.22 198.6)"/><path class="cls-3" d="M332,71c-7.68,0-10.85-2.3-10.85-6.19,0-2.78,1.63-4.37,4.37-5.19v-.38a3.34,3.34,0,0,1-2.36-3.36c0-2.4,1.93-3.65,4.32-4.27V51.4a7.7,7.7,0,0,1-4.65-7.49c0-5,3.55-8.45,9.07-8.45A10,10,0,0,1,337,36.71v-1c0-1.54.67-2.55,2.35-2.55h4.85v2.41h-5.66v2.25a8,8,0,0,1,2.49,6.1c0,5-3.65,8.4-9.12,8.4a11.06,11.06,0,0,1-2.49-.24c-2,.48-3.84,1.49-3.84,3.21,0,1.44,1.29,2.16,4,2.16h5.9c6,0,8.6,2.45,8.6,6.29C344.06,68.68,339.83,71,332,71Zm3.5-11h-8.11c-2.21.72-3.55,2.06-3.55,4.27,0,2.59,2.16,4.51,6.48,4.51h3.21c4.9,0,8-1.63,8-4.94C341.46,61.48,339.93,60,335.46,60Zm2.64-15.31V43.09c0-3.21-2.11-5.47-6.24-5.47s-6.19,2.26-6.19,5.47v1.59c0,3.16,2.16,5.47,6.19,5.47S338.1,47.84,338.1,44.68Z" transform="translate(222.22 198.6)"/><path class="cls-3" d="M351.54,58.45h9.31V38.39h-9.31V36h12V58.45h8.69v2.36H351.54Zm8.26-31v-.62c0-1.11.67-1.92,2.4-1.92s2.4.81,2.4,1.92v.62c0,1.1-.67,1.92-2.4,1.92S359.8,28.59,359.8,27.49Z" transform="translate(222.22 198.6)"/><path class="cls-3" d="M389.56,60.81c-2.64,0-3.89-1.59-3.89-4V38.39h-8.79V36h7c1.39,0,1.92-.53,1.92-1.93V27.3h2.63V36h11.81v2.35H388.4V58.45h11.81v2.36Z" transform="translate(222.22 198.6)"/><path class="cls-3" d="M407.51,56.53l1.87-1.63a11.66,11.66,0,0,0,9.46,4.18c4.32,0,7.34-1.64,7.34-5.09,0-3-2.3-3.84-5.33-4.27L417,49.19c-3.89-.58-8.21-1.63-8.21-6.63s4.13-7.1,9.56-7.1a12.89,12.89,0,0,1,9.84,3.94l-1.83,1.72c-1.34-1.58-3.64-3.36-8.16-3.36-4.17,0-6.67,1.54-6.67,4.61s2.31,3.84,5.28,4.27l3.89.58c3.89.58,8.16,1.63,8.16,6.62s-4.13,7.54-10.08,7.54C413.8,61.38,410.15,59.6,407.51,56.53Z" transform="translate(222.22 198.6)"/><g class="cls-4"><path class="cls-5" d="M663.35,267.77v15m0-466.37v-15M-201.22,267.77v15m0-466.37v-15M669.35,261.77h15m-891.57,0h-15M669.35-177.6h15m-891.57,0h-15" transform="translate(222.22 198.6)"/><path class="cls-6" d="M663.35,267.77v15m0-466.37v-15M-201.22,267.77v15m0-466.37v-15M669.35,261.77h15m-891.57,0h-15M669.35-177.6h15m-891.57,0h-15" transform="translate(222.22 198.6)"/></g></svg>